<svg xmlns="http://www.w3.org/2000/svg" viewBox="0 0 535 141" width="535" height="141">
	<style>
		tspan { white-space:pre }
		.shp0 { fill: #6b9bce } 
	</style>
	<g id="Layer">
		<g id="Layer">
			<path id="Layer" class="shp0" d="M46.1 62.6L72.2 62.6L69 81L42.9 81L33.5 134.1L13.3 134.1L36 5.5L89.5 5.5L86.3 23.9L53 23.9L46.1 62.6Z" />
			<path id="Layer" fill-rule="evenodd" class="shp0" d="M139.5 134.1L119.1 134.1L119.7 110.8L95 110.8L87.4 134.1L68.8 134.1L112 5.5L141.6 5.5L139.5 134.1ZM100.6 93.3L120.1 93.3L121.8 28.2L100.6 93.3Z" />
			<path id="Layer" fill-rule="evenodd" class="shp0" d="M191.2 134.1C190.7 130.8 190.3 128.8 192.1 118.3L195.7 98.1C197.8 86.2 194.5 81.7 185.4 81.7L178.4 81.7L169.2 134.1L149 134.1L171.7 5.4L202.2 5.4C223.2 5.4 230.4 15.1 226.9 35L225.1 45.1C222.8 58.3 217 67 207.3 71.2C216.7 75.4 218.3 85.2 215.9 98.6L212.4 118.4C211.3 124.6 210.7 129.2 211.9 134L191.2 134L191.2 134.1ZM181.6 63.4L189.5 63.4C197 63.4 202.2 60.1 204 49.8L206.2 37.1C207.8 27.9 205.4 23.9 198.2 23.9L188.6 23.9L181.6 63.4Z" />
			<path id="Layer" class="shp0" d="M257.2 40.9L240.8 134.1L222.6 134.1L245.3 5.4L270.7 5.4L277.9 82.4L291.5 5.4L309.5 5.4L286.8 134.1L266 134.1L257.2 40.9Z" />
			<path id="Layer" class="shp0" d="M334.6 59.7L362.4 59.7L359.2 78.1L331.4 78.1L324.8 115.8L359.7 115.8L356.5 134.2L301.4 134.2L324 5.5L379.1 5.5L375.9 23.9L341 23.9L334.6 59.7Z" />
			<path id="Layer" fill-rule="evenodd" class="shp0" d="M391.6 5.5L423.6 5.5C443.8 5.5 451.8 16.7 448.1 37.3L436.6 102.4C433 123 421.1 134.2 400.8 134.2L368.8 134.2L391.6 5.5ZM408.6 23.9L392.4 115.8L403.8 115.8C410.2 115.8 414.7 112.5 416.3 103.3L428.1 36.4C429.7 27.2 426.4 23.9 420 23.9L408.6 23.9Z" />
			<path id="Layer" fill-rule="evenodd" class="shp0" d="M459.5 36.4C463.1 15.8 476 4.1 495.9 4.1C515.8 4.1 524.5 15.9 520.9 36.4L509.1 103.3C505.5 123.9 492.6 135.6 472.7 135.6C452.8 135.6 444.1 123.8 447.7 103.3L459.5 36.4ZM467.7 104.5C466.1 113.7 469.5 117.2 475.9 117.2C482.3 117.2 487 113.7 488.6 104.5L500.9 35C502.5 25.8 499.1 22.3 492.7 22.3C486.3 22.3 481.6 25.8 480 35L467.7 104.5Z" />
		</g>
	</g>
</svg>